<mxfile host="65bd71144e">
    <diagram id="emJcGUal7Hdu_fB6Qggw" name="Page-1">
        <mxGraphModel dx="2182" dy="797" grid="1" gridSize="10" guides="1" tooltips="1" connect="1" arrows="1" fold="1" page="1" pageScale="1" pageWidth="827" pageHeight="1169" math="0" shadow="0">
            <root>
                <mxCell id="0"/>
                <mxCell id="1" parent="0"/>
                <mxCell id="4" style="edgeStyle=none;html=1;entryX=0.5;entryY=0;entryDx=0;entryDy=0;" edge="1" parent="1" source="2">
                    <mxGeometry relative="1" as="geometry">
                        <mxPoint x="-130" y="130" as="targetPoint"/>
                    </mxGeometry>
                </mxCell>
                <mxCell id="2" value="" style="ellipse;whiteSpace=wrap;html=1;aspect=fixed;strokeColor=#000000;fillColor=#050505;" parent="1" vertex="1">
                    <mxGeometry x="-150" y="46" width="40" height="40" as="geometry"/>
                </mxCell>
                <mxCell id="8" value="" style="group" vertex="1" connectable="0" parent="1">
                    <mxGeometry x="-190" y="130" width="120" height="50" as="geometry"/>
                </mxCell>
                <mxCell id="6" value="" style="rounded=1;whiteSpace=wrap;html=1;fillColor=#FFFFFF;strokeColor=#0A0A0A;" vertex="1" parent="8">
                    <mxGeometry width="120" height="50" as="geometry"/>
                </mxCell>
                <mxCell id="7" value="User selects choice" style="text;html=1;strokeColor=none;fillColor=none;align=center;verticalAlign=middle;whiteSpace=wrap;rounded=0;" vertex="1" parent="8">
                    <mxGeometry x="5" y="12.5" width="110" height="25" as="geometry"/>
                </mxCell>
                <mxCell id="9" value="" style="group" vertex="1" connectable="0" parent="1">
                    <mxGeometry x="-190" y="220" width="120" height="50" as="geometry"/>
                </mxCell>
                <mxCell id="10" value="" style="rounded=1;whiteSpace=wrap;html=1;fillColor=#FFFFFF;strokeColor=#0A0A0A;" vertex="1" parent="9">
                    <mxGeometry width="120" height="50" as="geometry"/>
                </mxCell>
                <mxCell id="11" value="Generate computer's choise" style="text;html=1;strokeColor=none;fillColor=none;align=center;verticalAlign=middle;whiteSpace=wrap;rounded=0;" vertex="1" parent="9">
                    <mxGeometry x="5" y="12.5" width="110" height="25" as="geometry"/>
                </mxCell>
                <mxCell id="14" value="" style="edgeStyle=none;html=1;entryX=0.5;entryY=0;entryDx=0;entryDy=0;" edge="1" parent="1" source="6" target="10">
                    <mxGeometry relative="1" as="geometry">
                        <mxPoint x="-130" y="210" as="targetPoint"/>
                    </mxGeometry>
                </mxCell>
                <mxCell id="24" style="edgeStyle=none;html=1;entryX=0.5;entryY=0;entryDx=0;entryDy=0;" edge="1" parent="1" source="18" target="56">
                    <mxGeometry relative="1" as="geometry">
                        <mxPoint x="-130" y="430" as="targetPoint"/>
                    </mxGeometry>
                </mxCell>
                <mxCell id="129" value="UC === 'Paper'" style="edgeLabel;html=1;align=center;verticalAlign=middle;resizable=0;points=[];" vertex="1" connectable="0" parent="24">
                    <mxGeometry x="-0.1657" relative="1" as="geometry">
                        <mxPoint y="-1" as="offset"/>
                    </mxGeometry>
                </mxCell>
                <mxCell id="25" style="edgeStyle=none;html=1;entryX=0.5;entryY=0;entryDx=0;entryDy=0;" edge="1" parent="1" source="18" target="107">
                    <mxGeometry relative="1" as="geometry">
                        <mxPoint x="35" y="430" as="targetPoint"/>
                        <Array as="points">
                            <mxPoint x="270" y="350"/>
                        </Array>
                    </mxGeometry>
                </mxCell>
                <mxCell id="130" value="UC === 'Scissors'" style="edgeLabel;html=1;align=center;verticalAlign=middle;resizable=0;points=[];" vertex="1" connectable="0" parent="25">
                    <mxGeometry x="0.8578" relative="1" as="geometry">
                        <mxPoint y="-1" as="offset"/>
                    </mxGeometry>
                </mxCell>
                <mxCell id="26" style="edgeStyle=none;html=1;entryX=0.5;entryY=0;entryDx=0;entryDy=0;" edge="1" parent="1" source="18" target="22">
                    <mxGeometry relative="1" as="geometry">
                        <Array as="points">
                            <mxPoint x="-530" y="350"/>
                        </Array>
                    </mxGeometry>
                </mxCell>
                <mxCell id="27" value="UC === 'Rock'" style="edgeLabel;html=1;align=center;verticalAlign=middle;resizable=0;points=[];" vertex="1" connectable="0" parent="26">
                    <mxGeometry x="-0.3302" relative="1" as="geometry">
                        <mxPoint as="offset"/>
                    </mxGeometry>
                </mxCell>
                <mxCell id="18" value="" style="rhombus;whiteSpace=wrap;html=1;strokeColor=#0A0A0A;fillColor=#FFFFFF;" vertex="1" parent="1">
                    <mxGeometry x="-160" y="320" width="60" height="60" as="geometry"/>
                </mxCell>
                <mxCell id="19" value="" style="edgeStyle=none;html=1;" edge="1" parent="1" source="10" target="18">
                    <mxGeometry relative="1" as="geometry"/>
                </mxCell>
                <mxCell id="28" style="edgeStyle=none;html=1;entryX=0.5;entryY=0;entryDx=0;entryDy=0;" edge="1" parent="1" source="22" target="31">
                    <mxGeometry relative="1" as="geometry">
                        <mxPoint x="-600" y="520" as="targetPoint"/>
                        <Array as="points">
                            <mxPoint x="-660" y="460"/>
                        </Array>
                    </mxGeometry>
                </mxCell>
                <mxCell id="29" style="edgeStyle=none;html=1;entryX=0.5;entryY=0;entryDx=0;entryDy=0;" edge="1" parent="1" source="22" target="46">
                    <mxGeometry relative="1" as="geometry">
                        <mxPoint x="-420" y="520" as="targetPoint"/>
                        <Array as="points">
                            <mxPoint x="-400" y="460"/>
                        </Array>
                    </mxGeometry>
                </mxCell>
                <mxCell id="44" style="edgeStyle=none;html=1;entryX=0.5;entryY=0;entryDx=0;entryDy=0;" edge="1" parent="1" source="22" target="38">
                    <mxGeometry relative="1" as="geometry"/>
                </mxCell>
                <mxCell id="22" value="" style="rhombus;whiteSpace=wrap;html=1;strokeColor=#0A0A0A;fillColor=#FFFFFF;" vertex="1" parent="1">
                    <mxGeometry x="-560" y="430" width="60" height="60" as="geometry"/>
                </mxCell>
                <mxCell id="30" value="" style="group" vertex="1" connectable="0" parent="1">
                    <mxGeometry x="-720" y="520" width="120" height="50" as="geometry"/>
                </mxCell>
                <mxCell id="31" value="" style="rounded=1;whiteSpace=wrap;html=1;fillColor=#FFFFFF;strokeColor=#0A0A0A;" vertex="1" parent="30">
                    <mxGeometry width="120" height="50" as="geometry"/>
                </mxCell>
                <mxCell id="32" value="CC === Paper" style="text;html=1;strokeColor=none;fillColor=none;align=center;verticalAlign=middle;whiteSpace=wrap;rounded=0;" vertex="1" parent="30">
                    <mxGeometry x="5" y="12.5" width="110" height="25" as="geometry"/>
                </mxCell>
                <mxCell id="33" value="" style="group" vertex="1" connectable="0" parent="1">
                    <mxGeometry x="-320" y="799" width="120" height="50" as="geometry"/>
                </mxCell>
                <mxCell id="34" value="" style="rounded=1;whiteSpace=wrap;html=1;fillColor=#FFFFFF;strokeColor=#0A0A0A;" vertex="1" parent="33">
                    <mxGeometry width="120" height="50" as="geometry"/>
                </mxCell>
                <mxCell id="35" value="Show You Lost Screen" style="text;html=1;strokeColor=none;fillColor=none;align=center;verticalAlign=middle;whiteSpace=wrap;rounded=0;" vertex="1" parent="33">
                    <mxGeometry x="5" y="12.5" width="110" height="25" as="geometry"/>
                </mxCell>
                <mxCell id="36" value="" style="edgeStyle=none;html=1;" edge="1" parent="1">
                    <mxGeometry relative="1" as="geometry">
                        <mxPoint x="-660" y="570" as="sourcePoint"/>
                        <mxPoint x="-660" y="630" as="targetPoint"/>
                    </mxGeometry>
                </mxCell>
                <mxCell id="37" value="" style="group" vertex="1" connectable="0" parent="1">
                    <mxGeometry x="-590" y="520" width="1060" height="80" as="geometry"/>
                </mxCell>
                <mxCell id="38" value="" style="rounded=1;whiteSpace=wrap;html=1;fillColor=#FFFFFF;strokeColor=#0A0A0A;" vertex="1" parent="37">
                    <mxGeometry width="120" height="50" as="geometry"/>
                </mxCell>
                <mxCell id="39" value="CC === Rock" style="text;html=1;strokeColor=none;fillColor=none;align=center;verticalAlign=middle;whiteSpace=wrap;rounded=0;" vertex="1" parent="37">
                    <mxGeometry x="5" y="12.5" width="110" height="25" as="geometry"/>
                </mxCell>
                <mxCell id="40" value="" style="group" vertex="1" connectable="0" parent="1">
                    <mxGeometry x="-190" y="799" width="120" height="50" as="geometry"/>
                </mxCell>
                <mxCell id="41" value="" style="rounded=1;whiteSpace=wrap;html=1;fillColor=#FFFFFF;strokeColor=#0A0A0A;" vertex="1" parent="40">
                    <mxGeometry width="120" height="50" as="geometry"/>
                </mxCell>
                <mxCell id="42" value="Show You Tied Screen" style="text;html=1;strokeColor=none;fillColor=none;align=center;verticalAlign=middle;whiteSpace=wrap;rounded=0;" vertex="1" parent="40">
                    <mxGeometry x="5" y="12.5" width="110" height="25" as="geometry"/>
                </mxCell>
                <mxCell id="43" value="" style="edgeStyle=none;html=1;" edge="1" parent="1">
                    <mxGeometry relative="1" as="geometry">
                        <mxPoint x="-530" y="570" as="sourcePoint"/>
                        <mxPoint x="-530" y="630" as="targetPoint"/>
                    </mxGeometry>
                </mxCell>
                <mxCell id="45" value="" style="group" vertex="1" connectable="0" parent="1">
                    <mxGeometry x="-460" y="520" width="120" height="50" as="geometry"/>
                </mxCell>
                <mxCell id="46" value="" style="rounded=1;whiteSpace=wrap;html=1;fillColor=#FFFFFF;strokeColor=#0A0A0A;" vertex="1" parent="45">
                    <mxGeometry width="120" height="50" as="geometry"/>
                </mxCell>
                <mxCell id="47" value="CC === Scissors" style="text;html=1;strokeColor=none;fillColor=none;align=center;verticalAlign=middle;whiteSpace=wrap;rounded=0;" vertex="1" parent="45">
                    <mxGeometry x="5" y="12.5" width="110" height="25" as="geometry"/>
                </mxCell>
                <mxCell id="48" value="" style="group" vertex="1" connectable="0" parent="1">
                    <mxGeometry x="-60" y="799" width="535" height="100" as="geometry"/>
                </mxCell>
                <mxCell id="49" value="" style="rounded=1;whiteSpace=wrap;html=1;fillColor=#FFFFFF;strokeColor=#0A0A0A;" vertex="1" parent="48">
                    <mxGeometry width="120" height="50" as="geometry"/>
                </mxCell>
                <mxCell id="50" value="Show You Won Screen" style="text;html=1;strokeColor=none;fillColor=none;align=center;verticalAlign=middle;whiteSpace=wrap;rounded=0;" vertex="1" parent="48">
                    <mxGeometry x="5" y="12.5" width="110" height="25" as="geometry"/>
                </mxCell>
                <mxCell id="176" value="" style="rounded=0;whiteSpace=wrap;html=1;strokeColor=#FF2B24;fillColor=none;" vertex="1" parent="48">
                    <mxGeometry x="-270" y="-49" width="400" height="149" as="geometry"/>
                </mxCell>
                <mxCell id="51" value="" style="edgeStyle=none;html=1;" edge="1" parent="1">
                    <mxGeometry relative="1" as="geometry">
                        <mxPoint x="-400" y="570" as="sourcePoint"/>
                        <mxPoint x="-400" y="630" as="targetPoint"/>
                    </mxGeometry>
                </mxCell>
                <mxCell id="53" style="edgeStyle=none;html=1;entryX=0.5;entryY=0;entryDx=0;entryDy=0;" edge="1" parent="1" source="56" target="58">
                    <mxGeometry relative="1" as="geometry">
                        <mxPoint x="-200" y="520" as="targetPoint"/>
                        <Array as="points">
                            <mxPoint x="-260" y="460"/>
                        </Array>
                    </mxGeometry>
                </mxCell>
                <mxCell id="54" style="edgeStyle=none;html=1;entryX=0.5;entryY=0;entryDx=0;entryDy=0;" edge="1" parent="1" source="56" target="72">
                    <mxGeometry relative="1" as="geometry">
                        <mxPoint x="-20" y="520" as="targetPoint"/>
                        <Array as="points">
                            <mxPoint y="460"/>
                        </Array>
                    </mxGeometry>
                </mxCell>
                <mxCell id="55" style="edgeStyle=none;html=1;entryX=0.5;entryY=0;entryDx=0;entryDy=0;" edge="1" parent="1" source="56" target="65">
                    <mxGeometry relative="1" as="geometry"/>
                </mxCell>
                <mxCell id="56" value="" style="rhombus;whiteSpace=wrap;html=1;strokeColor=#0A0A0A;fillColor=#FFFFFF;" vertex="1" parent="1">
                    <mxGeometry x="-160" y="430" width="60" height="60" as="geometry"/>
                </mxCell>
                <mxCell id="57" value="" style="group" vertex="1" connectable="0" parent="1">
                    <mxGeometry x="-320" y="520" width="120" height="50" as="geometry"/>
                </mxCell>
                <mxCell id="58" value="" style="rounded=1;whiteSpace=wrap;html=1;fillColor=#FFFFFF;strokeColor=#0A0A0A;" vertex="1" parent="57">
                    <mxGeometry width="120" height="50" as="geometry"/>
                </mxCell>
                <mxCell id="59" value="CC === Paper" style="text;html=1;strokeColor=none;fillColor=none;align=center;verticalAlign=middle;whiteSpace=wrap;rounded=0;" vertex="1" parent="57">
                    <mxGeometry x="5" y="12.5" width="110" height="25" as="geometry"/>
                </mxCell>
                <mxCell id="63" value="" style="edgeStyle=none;html=1;" edge="1" parent="1">
                    <mxGeometry relative="1" as="geometry">
                        <mxPoint x="-260" y="570" as="sourcePoint"/>
                        <mxPoint x="-260" y="630" as="targetPoint"/>
                    </mxGeometry>
                </mxCell>
                <mxCell id="64" value="" style="group" vertex="1" connectable="0" parent="1">
                    <mxGeometry x="-190" y="520" width="120" height="50" as="geometry"/>
                </mxCell>
                <mxCell id="65" value="" style="rounded=1;whiteSpace=wrap;html=1;fillColor=#FFFFFF;strokeColor=#0A0A0A;" vertex="1" parent="64">
                    <mxGeometry width="120" height="50" as="geometry"/>
                </mxCell>
                <mxCell id="66" value="CC === Rock" style="text;html=1;strokeColor=none;fillColor=none;align=center;verticalAlign=middle;whiteSpace=wrap;rounded=0;" vertex="1" parent="64">
                    <mxGeometry x="5" y="12.5" width="110" height="25" as="geometry"/>
                </mxCell>
                <mxCell id="70" value="" style="edgeStyle=none;html=1;" edge="1" parent="1">
                    <mxGeometry relative="1" as="geometry">
                        <mxPoint x="-130" y="570" as="sourcePoint"/>
                        <mxPoint x="-130" y="630" as="targetPoint"/>
                    </mxGeometry>
                </mxCell>
                <mxCell id="71" value="" style="group" vertex="1" connectable="0" parent="1">
                    <mxGeometry x="-60" y="520" width="120" height="50" as="geometry"/>
                </mxCell>
                <mxCell id="72" value="" style="rounded=1;whiteSpace=wrap;html=1;fillColor=#FFFFFF;strokeColor=#0A0A0A;" vertex="1" parent="71">
                    <mxGeometry width="120" height="50" as="geometry"/>
                </mxCell>
                <mxCell id="73" value="CC === Scissors" style="text;html=1;strokeColor=none;fillColor=none;align=center;verticalAlign=middle;whiteSpace=wrap;rounded=0;" vertex="1" parent="71">
                    <mxGeometry x="5" y="12.5" width="110" height="25" as="geometry"/>
                </mxCell>
                <mxCell id="77" value="" style="edgeStyle=none;html=1;" edge="1" parent="1">
                    <mxGeometry relative="1" as="geometry">
                        <mxPoint y="570" as="sourcePoint"/>
                        <mxPoint y="630" as="targetPoint"/>
                    </mxGeometry>
                </mxCell>
                <mxCell id="104" style="edgeStyle=none;html=1;entryX=0.5;entryY=0;entryDx=0;entryDy=0;" edge="1" parent="1" source="107" target="109">
                    <mxGeometry relative="1" as="geometry">
                        <mxPoint x="200" y="520" as="targetPoint"/>
                        <Array as="points">
                            <mxPoint x="140" y="460"/>
                        </Array>
                    </mxGeometry>
                </mxCell>
                <mxCell id="105" style="edgeStyle=none;html=1;entryX=0.5;entryY=0;entryDx=0;entryDy=0;" edge="1" parent="1" source="107" target="123">
                    <mxGeometry relative="1" as="geometry">
                        <mxPoint x="380" y="520" as="targetPoint"/>
                        <Array as="points">
                            <mxPoint x="400" y="460"/>
                        </Array>
                    </mxGeometry>
                </mxCell>
                <mxCell id="106" style="edgeStyle=none;html=1;entryX=0.5;entryY=0;entryDx=0;entryDy=0;" edge="1" parent="1" source="107" target="116">
                    <mxGeometry relative="1" as="geometry"/>
                </mxCell>
                <mxCell id="107" value="" style="rhombus;whiteSpace=wrap;html=1;strokeColor=#0A0A0A;fillColor=#FFFFFF;" vertex="1" parent="1">
                    <mxGeometry x="240" y="430" width="60" height="60" as="geometry"/>
                </mxCell>
                <mxCell id="108" value="" style="group" vertex="1" connectable="0" parent="1">
                    <mxGeometry x="80" y="520" width="120" height="50" as="geometry"/>
                </mxCell>
                <mxCell id="109" value="" style="rounded=1;whiteSpace=wrap;html=1;fillColor=#FFFFFF;strokeColor=#0A0A0A;" vertex="1" parent="108">
                    <mxGeometry width="120" height="50" as="geometry"/>
                </mxCell>
                <mxCell id="110" value="CC === Paper" style="text;html=1;strokeColor=none;fillColor=none;align=center;verticalAlign=middle;whiteSpace=wrap;rounded=0;" vertex="1" parent="108">
                    <mxGeometry x="5" y="12.5" width="110" height="25" as="geometry"/>
                </mxCell>
                <mxCell id="114" value="" style="edgeStyle=none;html=1;" edge="1" parent="1">
                    <mxGeometry relative="1" as="geometry">
                        <mxPoint x="140" y="570" as="sourcePoint"/>
                        <mxPoint x="140" y="630" as="targetPoint"/>
                    </mxGeometry>
                </mxCell>
                <mxCell id="115" value="" style="group" vertex="1" connectable="0" parent="1">
                    <mxGeometry x="210" y="520" width="120" height="50" as="geometry"/>
                </mxCell>
                <mxCell id="116" value="" style="rounded=1;whiteSpace=wrap;html=1;fillColor=#FFFFFF;strokeColor=#0A0A0A;" vertex="1" parent="115">
                    <mxGeometry width="120" height="50" as="geometry"/>
                </mxCell>
                <mxCell id="117" value="CC === Rock" style="text;html=1;strokeColor=none;fillColor=none;align=center;verticalAlign=middle;whiteSpace=wrap;rounded=0;" vertex="1" parent="115">
                    <mxGeometry x="5" y="12.5" width="110" height="25" as="geometry"/>
                </mxCell>
                <mxCell id="121" value="" style="edgeStyle=none;html=1;" edge="1" parent="1">
                    <mxGeometry relative="1" as="geometry">
                        <mxPoint x="270" y="570" as="sourcePoint"/>
                        <mxPoint x="270" y="630" as="targetPoint"/>
                    </mxGeometry>
                </mxCell>
                <mxCell id="122" value="" style="group" vertex="1" connectable="0" parent="1">
                    <mxGeometry x="340" y="520" width="120" height="50" as="geometry"/>
                </mxCell>
                <mxCell id="123" value="" style="rounded=1;whiteSpace=wrap;html=1;fillColor=#FFFFFF;strokeColor=#0A0A0A;" vertex="1" parent="122">
                    <mxGeometry width="120" height="50" as="geometry"/>
                </mxCell>
                <mxCell id="124" value="CC === Scissors" style="text;html=1;strokeColor=none;fillColor=none;align=center;verticalAlign=middle;whiteSpace=wrap;rounded=0;" vertex="1" parent="122">
                    <mxGeometry x="5" y="12.5" width="110" height="25" as="geometry"/>
                </mxCell>
                <mxCell id="128" value="" style="edgeStyle=none;html=1;" edge="1" parent="1">
                    <mxGeometry relative="1" as="geometry">
                        <mxPoint x="400" y="570" as="sourcePoint"/>
                        <mxPoint x="400" y="630" as="targetPoint"/>
                    </mxGeometry>
                </mxCell>
                <mxCell id="137" value="" style="edgeStyle=none;html=1;" edge="1" parent="1" source="133" target="136">
                    <mxGeometry relative="1" as="geometry"/>
                </mxCell>
                <mxCell id="133" value="" style="rounded=0;whiteSpace=wrap;html=1;strokeColor=#0A0A0A;fillColor=#000000&#10;;" vertex="1" parent="1">
                    <mxGeometry x="-705" y="630" width="1150" height="20" as="geometry"/>
                </mxCell>
                <mxCell id="134" value="" style="group" vertex="1" connectable="0" parent="1">
                    <mxGeometry x="-190" y="679" width="120" height="50" as="geometry"/>
                </mxCell>
                <mxCell id="135" value="" style="rounded=1;whiteSpace=wrap;html=1;fillColor=#FFFFFF;strokeColor=#0A0A0A;" vertex="1" parent="134">
                    <mxGeometry width="120" height="50" as="geometry"/>
                </mxCell>
                <mxCell id="136" value="Determine Winner" style="text;html=1;strokeColor=none;fillColor=none;align=center;verticalAlign=middle;whiteSpace=wrap;rounded=0;" vertex="1" parent="134">
                    <mxGeometry x="5" y="12.5" width="110" height="25" as="geometry"/>
                </mxCell>
                <mxCell id="139" value="" style="edgeStyle=none;html=1;" edge="1" parent="1" source="135">
                    <mxGeometry relative="1" as="geometry">
                        <mxPoint x="-130" y="799" as="targetPoint"/>
                    </mxGeometry>
                </mxCell>
                <mxCell id="140" style="edgeStyle=none;html=1;" edge="1" parent="1">
                    <mxGeometry relative="1" as="geometry">
                        <mxPoint x="-260" y="799" as="targetPoint"/>
                        <mxPoint x="-130" y="729" as="sourcePoint"/>
                        <Array as="points">
                            <mxPoint x="-130" y="759"/>
                            <mxPoint x="-260" y="759"/>
                        </Array>
                    </mxGeometry>
                </mxCell>
                <mxCell id="141" style="edgeStyle=none;html=1;entryX=0.5;entryY=0;entryDx=0;entryDy=0;" edge="1" parent="1" target="49">
                    <mxGeometry relative="1" as="geometry">
                        <mxPoint x="-250" y="809" as="targetPoint"/>
                        <mxPoint x="-130" y="739" as="sourcePoint"/>
                        <Array as="points">
                            <mxPoint x="-130" y="759"/>
                            <mxPoint y="759"/>
                        </Array>
                    </mxGeometry>
                </mxCell>
                <mxCell id="155" value="" style="edgeStyle=none;html=1;" edge="1" parent="1">
                    <mxGeometry relative="1" as="geometry">
                        <mxPoint x="-130" y="849" as="sourcePoint"/>
                        <mxPoint x="-130" y="919" as="targetPoint"/>
                    </mxGeometry>
                </mxCell>
                <mxCell id="156" style="edgeStyle=none;html=1;" edge="1" parent="1">
                    <mxGeometry relative="1" as="geometry">
                        <mxPoint x="-130" y="919" as="targetPoint"/>
                        <mxPoint x="-260" y="849" as="sourcePoint"/>
                        <Array as="points">
                            <mxPoint x="-260" y="879"/>
                            <mxPoint x="-130" y="879"/>
                        </Array>
                    </mxGeometry>
                </mxCell>
                <mxCell id="157" style="edgeStyle=none;html=1;exitX=0.5;exitY=1;exitDx=0;exitDy=0;" edge="1" parent="1" source="49">
                    <mxGeometry relative="1" as="geometry">
                        <mxPoint x="-130" y="919" as="targetPoint"/>
                        <mxPoint x="-130" y="859" as="sourcePoint"/>
                        <Array as="points">
                            <mxPoint y="879"/>
                            <mxPoint x="-130" y="879"/>
                        </Array>
                    </mxGeometry>
                </mxCell>
                <mxCell id="161" value="Play Again" style="edgeStyle=none;html=1;" edge="1" parent="1" source="160">
                    <mxGeometry x="-0.949" relative="1" as="geometry">
                        <mxPoint x="-70" y="160" as="targetPoint"/>
                        <Array as="points">
                            <mxPoint x="500" y="950"/>
                            <mxPoint x="500" y="160"/>
                        </Array>
                        <mxPoint x="1" as="offset"/>
                    </mxGeometry>
                </mxCell>
                <mxCell id="169" style="edgeStyle=none;html=1;" edge="1" parent="1" source="160">
                    <mxGeometry relative="1" as="geometry">
                        <mxPoint x="-130" y="1030" as="targetPoint"/>
                    </mxGeometry>
                </mxCell>
                <mxCell id="160" value="" style="rhombus;whiteSpace=wrap;html=1;strokeColor=#0A0A0A;fillColor=#FFFFFF;" vertex="1" parent="1">
                    <mxGeometry x="-160" y="920" width="60" height="60" as="geometry"/>
                </mxCell>
                <mxCell id="168" value="" style="group" vertex="1" connectable="0" parent="1">
                    <mxGeometry x="-155" y="1030" width="50" height="50" as="geometry"/>
                </mxCell>
                <mxCell id="166" value="" style="ellipse;whiteSpace=wrap;html=1;aspect=fixed;strokeColor=#0A0A0A;fillColor=#FFFFFF;" vertex="1" parent="168">
                    <mxGeometry width="50" height="50" as="geometry"/>
                </mxCell>
                <mxCell id="167" value="" style="ellipse;whiteSpace=wrap;html=1;aspect=fixed;strokeColor=#0A0A0A;fillColor=#00000&#10;;" vertex="1" parent="168">
                    <mxGeometry x="5" y="5" width="40" height="40" as="geometry"/>
                </mxCell>
                <mxCell id="170" value="" style="rounded=0;whiteSpace=wrap;html=1;strokeColor=#FF2B24;fillColor=none;" vertex="1" parent="1">
                    <mxGeometry x="-205" y="30" width="150" height="260" as="geometry"/>
                </mxCell>
                <mxCell id="171" value="" style="rounded=0;whiteSpace=wrap;html=1;strokeColor=#FF2B24;fillColor=none;" vertex="1" parent="1">
                    <mxGeometry x="-735" y="310" width="1205" height="290" as="geometry"/>
                </mxCell>
                <mxCell id="172" value="" style="rounded=0;whiteSpace=wrap;html=1;strokeColor=#FF2B24;fillColor=none;" vertex="1" parent="1">
                    <mxGeometry x="-722" y="320" width="385" height="270" as="geometry"/>
                </mxCell>
                <mxCell id="173" value="" style="rounded=0;whiteSpace=wrap;html=1;strokeColor=#FF2B24;fillColor=none;" vertex="1" parent="1">
                    <mxGeometry x="-322" y="320" width="385" height="270" as="geometry"/>
                </mxCell>
                <mxCell id="174" value="" style="rounded=0;whiteSpace=wrap;html=1;strokeColor=#FF2B24;fillColor=none;" vertex="1" parent="1">
                    <mxGeometry x="78" y="320" width="385" height="270" as="geometry"/>
                </mxCell>
                <mxCell id="175" value="" style="rounded=0;whiteSpace=wrap;html=1;strokeColor=#FF2B24;fillColor=none;" vertex="1" parent="1">
                    <mxGeometry x="-732.5" y="620" width="1205" height="120" as="geometry"/>
                </mxCell>
                <mxCell id="181" value="" style="rounded=0;whiteSpace=wrap;html=1;strokeColor=#FF2B24;fillColor=none;" vertex="1" parent="1">
                    <mxGeometry x="-248.13" y="910" width="237.25" height="180" as="geometry"/>
                </mxCell>
            </root>
        </mxGraphModel>
    </diagram>
</mxfile>